<svg xmlns="http://www.w3.org/2000/svg" viewBox="0 0 640 120" enable-background="new 0 0 640 120"><switch><g><path d="m0 0h640v120h-640z"/><path fill="#f68d32" d="m0 58.4h640v3.5h-640z"/><path fill="#6b7abb" d="m0 64.4h640v3.5h-640z"/><g><g><path fill="#fff" d="m59.7 50.1c-1.1 0-6.1-2-8.3-3-3.5-1.7-7.3-4.4-10.3-7.4-3.8-3.8-8.1-10.5-9-12.7-.3-.8-.6-1.4-.2-2l.3-.4h.6c.3 0 .7.1 1.4.9 7 7.1 10.5 9.3 17.5 12.4 6.2 2.7 16.4 4.6 18.8 4.9 0 0 .3 0 .4 0 .3 0 .9.1 1.8.1 1.3.1 1.5.9 1.5 1.2.1.9-.9 1.5-1.5 1.6-.3.1-3.9.8-5.2 1-1.8.3-4.2 1.5-4.8 2-.8.7-1.8 1.4-3 1.4"/><path fill="#231f20" d="m32.8 25.5c.2 0 .6.5.6.5 7.3 7.4 11 9.6 17.8 12.6 6.3 2.8 16.6 4.7 19 5 .1 0 .3 0 .4.1.3 0 .9.1 1.8.1 1.3.1.3.8-.1.9-.3.1-3.9.8-5.2 1-2 .4-4.5 1.6-5.2 2.2-.8.7-1.5 1.1-2.3 1.1-.8 0-5.2-1.7-7.9-2.9-3.1-1.5-6.8-4-10-7.2-3.7-3.7-8-10.4-8.8-12.4-.2-.8-.2-1-.1-1m0-2c-.7 0-1.3.3-1.7.9-.7 1-.2 2.2.1 2.9 1 2.3 5.4 9.2 9.2 13 3.1 3.1 6.9 5.9 10.5 7.6 1.8.9 7.3 3.1 8.7 3.1 1.5 0 2.7-.9 3.6-1.6.4-.3 2.6-1.4 4.3-1.7 1.3-.3 4.9-1 5.2-1 1-.2 2.4-1.2 2.3-2.7-.1-.9-.7-2-2.4-2.2-.9-.1-1.5-.1-1.8-.2-.1 0-.1 0-.2 0h-.2c-2.3-.3-12.4-2.1-18.5-4.8-6.3-2.8-9.9-4.8-17.2-12.2-.3-.5-1-1.1-1.9-1.1z"/></g><g><path fill="#fff" d="m86.2 91.3c-1.1 0-2.3 0-3.4 0-.6 0-1.2 0-1.7 0-4.5 0-8.7-6.1-10.7-9l-.4-.6c-4.9-7-7.7-20.1-8.4-26.7-.6-5.6.2-6.5 2.8-7.8.4-.2.9-.5 1.5-.8 2-1.2 7.1-1.6 13.7-2 5.1-.4 10.8-.8 15.4-1.7 10.3-2 17-3.4 24.3-7.5 7.3-4.1 10.8-8.9 10.9-9 .7-.8 1.1-1.1 1.6-1.1h.5l.4.5c.3.5.3 1.2-.9 3.6-.4.9-5.1 8.6-11.8 13.3-6.5 4.6-13.4 6.7-18.8 8.1.4-.1.7-.2 1.1-.2.4-.1.8-.1 1.1-.1 2 0 2.4 1.6 2.5 2.1v.1c.2.5.4 1.9.5 2.5.4 3.5.3 9.5-2.5 18.3l-.1.4c-.6 1.8-2.7 8.1-7.1 12.9-4.3 4.7-6.4 4.8-7.2 4.8-.2 0-.3 0-1.2 0-.5-.1-1.2-.1-2.1-.1m10.2-39.8c-5.4.7-11.9.8-15.8.8-4.8.1-5.2.9-5.8 3-.6 2.1-.1 7.7.1 9.7 1.7 9.5 5.2 14.6 7 17.3l.3.5c1.5 2.2 2.2 2.3 3 2.5.2 0 .8-.4 1.1-.9 7.1-7.6 7.6-25.2 7.6-28.7.1-3.4 1.8-4.1 2.5-4.2"/><path fill="#231f20" d="m131.8 26.1c.4 0-.6 2.2-.8 2.7-.3.7-4.9 8.3-11.4 12.9-6.6 4.6-13.4 6.7-19 8.1-5.6 1.4-15 1.5-19.9 1.5-4.9.1-5.9.9-6.8 3.7-.8 2.7.1 10.1.1 10.1 1.9 10.4 5.8 15.7 7.5 18.2 1.7 2.5 2.7 2.7 3.7 2.9.1 0 .1 0 .2 0 .9 0 1.9-1.2 1.9-1.2 6.4-6.9 7.7-21.8 7.8-29.3 0-3.3 1.6-3.3 1.8-3.3s3.5-.6 5.9-1.1c.3-.1.6-.1.9-.1 1.5 0 1.5 1.2 1.6 1.5.2.4.4 2.3.4 2.3 1 8-2.2 17-2.6 18.3-.4 1.3-2.5 7.7-6.9 12.5-4.4 4.9-6.2 4.4-6.7 4.5-.1 0-.5 0-1 0-1.3 0-3.7 0-5.6 0-.6 0-1.2 0-1.8 0 0 0 0 0-.1 0-4.2 0-8.7-7-10.2-9.2-4.7-6.8-7.6-19.7-8.2-26.2-.7-6.5.5-5.7 3.8-7.6 3.3-2 18.5-1.6 28.7-3.6 10.2-2 17.1-3.4 24.6-7.6 7.5-4.3 11.2-9.3 11.2-9.3.5-.5.7-.7.9-.7m0-2c-1 0-1.7.7-2.3 1.4l-.1.1-.1.1c0 0-3.5 4.7-10.6 8.7-7.2 4-13.5 5.4-24 7.4-4.5.9-10.2 1.3-15.3 1.7-7.6.6-12 .9-14.1 2.2-.5.3-1 .5-1.4.8-3.1 1.6-4 2.9-3.4 8.8.7 6.7 3.6 20 8.6 27.1.1.2.2.3.4.5 2.1 3.1 6.5 9.5 11.4 9.5h.1c.5 0 1.1 0 1.7 0 1.1 0 2.3 0 3.4 0 .9 0 1.7 0 2.3 0 .7 0 1 0 1.2 0 1.6 0 3.9-.7 7.9-5.1 4.5-5 6.7-11.4 7.3-13.3 0-.1.1-.2.1-.3 2.9-9 3-15.2 2.5-18.7-.2-1.3-.4-2.2-.5-2.7v-.1c-.2-.8-.5-1.3-.9-1.8 4.5-1.4 9.6-3.5 14.6-7 7-4.9 11.6-12.7 12.1-13.7 1.2-2.5 1.4-3.6.8-4.6-.4-.6-1-1-1.7-1zm-56 40.7c-.3-2.7-.7-7.6-.2-9.3.5-1.7.7-2.2 4.9-2.3 3.2 0 8.2-.1 13-.5-.3.8-.6 1.7-.6 3-.1 9.4-2 22.3-7.3 28v.1c-.1.1-.3.3-.4.4-.5-.2-1.1-.5-2.1-2l-.4-.5c-1.8-2.6-5.2-7.5-6.9-16.9"/></g></g><g><g><path fill="#fff" d="m184.2 75.2v-19c-.5-2.8-2.1-4.3-4.8-4.3-3.6 0-7.8 2.6-8.5 3.9 0 0 0 0 0 .1v19.2h-12.7v-18.2c-1-3.4-2.7-5-5.3-5-3.4 0-7.2 2.7-8.3 3.5v19.9h-12.5v-31h12.6v3c2-1.3 6-3.4 11.9-3.4 7.8 0 11.2 3.8 12.4 5.7 1.9-1.7 6.8-5.7 13.7-5.7 13.1 0 14.5 11.3 14.5 11.4v19.9h-13"/><path fill="#231f20" d="m182.7 44.7c12.5 0 13.7 10.7 13.7 10.7v19h-11.4v-18.2c-.7-3.7-3-5-5.6-5-3.8 0-8.3 2.7-9.2 4.3-.1.2-.1.3-.1.5v18.4h-11.1v-17.5c0-.1 0-.2 0-.2-1.2-4.2-3.6-5.6-6.1-5.6-4.3 0-9.1 3.9-9.1 3.9v19.4h-10.9v-29.3h11v3.9c0 0 4.5-4.3 12.7-4.3 9.7 0 12.2 6.2 12.2 6.2s5.5-6.2 13.9-6.2m0-1.6c-6.5 0-11.3 3.3-13.6 5.3-1.7-2.1-5.3-5.3-12.5-5.3-5.1 0-8.8 1.5-11.1 2.8v-.8-1.6h-1.6-11-1.6v1.6 29.3 1.6h1.6 10.9 1.6v-1.6-18.6c1.3-1 4.6-3.1 7.5-3.1 1.4 0 3.4.4 4.5 4.3v17.5 1.5h1.6 11.1 1.6v-1.6-18.2c.8-1.1 4.5-3.3 7.7-3.3 2.3 0 3.5 1.1 4 3.5v18.1 1.5h1.6 11.4 1.6v-1.6-19-.1-.1c-.4-4.2-4.2-12.1-15.3-12.1z"/></g><g><path fill="#fff" d="m223.6 75.4c-21.4 0-21.7-15-21.7-15.6 0-.7.2-15.9 21.7-15.9 6.4 0 11.5 1.8 14.9 5.3 4.9 5 4.8 11.5 4.8 11.8v.8h-27.4c.6 3.6 5.2 6.3 11.1 6.3 6.7 0 14.2-3.8 14.3-3.8l1.2-.6v7.6l-.3.2c-.3 0-6.1 3.9-18.6 3.9m7.1-19.9c-.5-1.6-2.1-4.7-7.2-4.7-5 0-6.7 3.1-7.2 4.7h14.4"/><path fill="#231f20" d="m223.6 44.6c19.2 0 19 16.3 19 16.3h-27.5c0 4.3 4.9 7.9 11.9 7.9 7 0 14.6-3.9 14.6-3.9v5.8c0 0-5.6 3.9-18.1 3.9-19 0-20.9-12.2-20.9-14.8.1-2.7 1.7-15.2 21-15.2m-8.2 11.7h16.4c0 0-.7-6.3-8.2-6.3-7.5 0-8.2 6.3-8.2 6.3m8.2-13.3c-17.7 0-22.5 10.5-22.5 16.7 0 .7.3 16.4 22.5 16.4 12.8 0 18.7-4 19-4.1l.7-.5v-.8-5.8-2.4h.9v-1.6c0-.3 0-7.2-5.1-12.4-3.6-3.6-8.9-5.5-15.5-5.5zm-6 11.7c.8-1.4 2.4-3 6-3 3.6 0 5.2 1.7 6 3h-12m-.6 7.8h25.5.2l-1.8.9c-.1 0-7.4 3.7-13.9 3.7-4.9.1-8.9-1.9-10-4.6"/></g><g><path fill="#fff" d="m275.9 75.4c-3.8 0-6.2-.9-7.1-2.8-1.9.9-6.5 2.8-11.5 2.8-6.7 0-11.4-3.3-11.4-8.1 0-4.9 3.4-8.1 21.9-11.7 0-.5 0-1.2-.5-1.8-.8-1-2.5-1.6-4.9-1.6-7.5 0-13 4.5-13.1 4.6l-1.3 1.2v-1.8-7.9l.4-.2c.3-.1 6.7-3.3 16.5-3.3 10.2 0 16.4 3.2 16.4 8.6v13.5c.1.2.4.7 1.4.7.6 0 1.8-.2 3.6-1.3l1.2-.7v7l-.5.2c-.3.3-5.3 2.6-11.1 2.6m-8.2-13.8c-6.1 1.5-8.3 3.4-8.3 4.8 0 .9 1 2.1 3.3 2.1 1.9 0 4.2-1.1 5-1.6v-5.3"/><path fill="#231f20" d="m264.8 45.7c9.7 0 15.5 3 15.5 7.8s0 13.7 0 13.7.3 1.4 2.2 1.4c.9 0 2.2-.3 4-1.4v5.1c0 0-4.9 2.3-10.7 2.3s-6.4-2.2-6.6-3.1c0 0-5.8 3.1-12 3.1-6.2 0-10.6-2.9-10.6-7.3s3.1-7.4 21.8-11c0 0 1.5-4.9-6.1-4.9-7.6 0-13.3 4.6-13.6 4.8v-7.4c0 .1 6.4-3.1 16.1-3.1m-2.1 23.7c2.7 0 5.8-2 5.8-2v-6.8c-8.6 1.9-9.9 4.5-9.9 5.8 0 1.3 1.4 3 4.1 3m2.1-25.3c-10 0-16.5 3.2-16.8 3.4l-.9.4v1 7.4 3.9l2.7-2.7c.3-.2 5.6-4.4 12.5-4.4 2.2 0 3.7.4 4.3 1.3.2.2.2.5.3.7-18.4 3.6-21.8 7-21.8 12.3 0 5.2 5 8.9 12.2 8.9 4.6 0 9-1.6 11.2-2.5 1 1.4 3.2 2.5 7.4 2.5 6 0 11.1-2.3 11.3-2.4l.9-.4v-1-5.1-2.8l-2.4 1.4c-1.7 1-2.7 1.2-3.2 1.2-.3 0-.5-.1-.6-.1v-13.6c0-5.9-6.4-9.4-17.1-9.4zm-2.1 23.7c-1.7 0-2.5-.9-2.5-1.3 0 0 .1-2 6.7-3.7v3.8c-1.1.4-2.8 1.2-4.2 1.2"/></g><g><path fill="#fff" d="m308.6 75.5c-7.5 0-16.2-2.9-16.2-11.1v-11.1h-5.7v-2.8l16.6-13.4h3v8.7h14.2v7.5h-14.2v10.6c0 .3.5 3.5 4 3.5.3 0 .6 0 .9-.1 5.3-.7 8.2-1.4 8.3-1.4l1-.3v7.9l-.6.2c-.1 0-5.7 1.8-11.3 1.8"/><path fill="#231f20" d="m305.6 37.9v8.7h14.2v5.9h-14.2v11.4c0 0 .4 4.3 4.8 4.3.3 0 .6 0 1-.1 5.4-.7 8.4-1.4 8.4-1.4v6.3c0 0-5.6 1.8-11.1 1.8s-15.3-1.9-15.3-10.3 0-11.9 0-11.9h-5.7v-1.6l16.1-13h1.8m1.6-1.7h-1.6-1.9-.6l-.4.4-16.1 13-.6.5v.8 1.6 1.6h1.6 4.1v10.3c0 4.3 2.3 7.7 6.5 9.8 4 2 8.6 2.2 10.4 2.2 5.7 0 11.4-1.8 11.6-1.9l1.1-.4v-1.2-6.3-2.1l-2 .5c0 0-3 .7-8.2 1.4-.3 0-.5.1-.8.1-2.8 0-3.2-2.3-3.2-2.8v-9.7h12.6 1.6v-1.6-5.9-1.6h-1.6-12.6v-7.1-1.6h.1z"/></g></g><g><g><path fill="#fff" d="m354.5 70.9c-2.2 0-3.3-.6-3.8-1.3-1.1.5-3.4 1.3-5.8 1.3-3.7 0-6.3-1.9-6.3-4.6 0-3.1 2.8-4.7 11.3-6.3 0-.1-.1-.3-.2-.4-.3-.4-1.1-.6-2.2-.6-3.7 0-6.5 2.3-6.5 2.3l-1.3 1.2v-1.8-4.3l.4-.2c.1-.1 3.5-1.7 8.7-1.7 5.5 0 8.8 1.8 8.8 4.9v6.9c0 0 .1.1.3.1.3 0 .8-.1 1.7-.6l1.2-.7v4.5l-.5.2c-.1-.1-2.7 1.1-5.8 1.1m-4.6-7c-2.8.7-3.5 1.6-3.5 2 0 .3.4.7 1.3.7.7 0 1.7-.4 2.2-.7v-2"/><path fill="#231f20" d="m348.7 55.1c5 0 8 1.5 8 4s0 7.1 0 7.1.2.7 1.1.7c.5 0 1.1-.2 2.1-.7v2.6c0 0-2.6 1.2-5.5 1.2s-3.3-1.1-3.4-1.6c0 0-3 1.6-6.2 1.6-3.2 0-5.5-1.5-5.5-3.8 0-2.3 1.6-3.8 11.2-5.7 0 0 .8-2.5-3.1-2.5s-6.9 2.4-7 2.5v-3.8c0 .1 3.3-1.6 8.3-1.6m-1 12.3c1.4 0 3-1 3-1v-3.5c-4.5 1-5.1 2.3-5.1 3-.1.6.7 1.5 2.1 1.5m1-13.9c-5.3 0-8.9 1.7-9 1.8l-.9.4v1 3.8 2.7c-.7.9-1.1 1.8-1.1 3 0 3.2 2.9 5.4 7.1 5.4 2.2 0 4.3-.6 5.6-1.2.7.7 2 1.2 4 1.2 3.3 0 6.1-1.3 6.2-1.3l.9-.4v-1-2.6-2.8l-2.4 1.4c-.3.2-.6.3-.8.4v-6.1c.1-1.3-.6-5.7-9.6-5.7zm-5.6 7.3c1-.5 2.4-1 4-1.1-1.6.4-2.9.7-4 1.1m4.3 5c.3-.2.8-.5 1.7-.8v.4c-.5.2-1 .4-1.4.4-.1 0-.2 0-.3 0"/></g><g><path fill="#fff" d="m371.4 71c-4 0-8.7-1.6-8.7-6.1v-5.4h-2.9v-2l8.8-7.1h2.1v4.5h7.3v4.7h-7.3v5.1c0 .2.2 1.4 1.7 1.4.1 0 .3 0 .4 0 2.7-.3 4.2-.7 4.2-.7l1-.3v4.9l-.6.2c-.1-.2-3.1.8-6 .8"/><path fill="#231f20" d="m369.8 51.1v4.5h7.3v3.1h-7.3v5.9c0 0 .2 2.2 2.5 2.2.2 0 .3 0 .5 0 2.8-.4 4.3-.7 4.3-.7v3.2c0 0-2.9.9-5.8.9-2.8 0-7.9-1-7.9-5.3 0-4.3 0-6.2 0-6.2h-2.9v-.8l8.3-6.7h1m1.6-1.7h-1.6-1-.6l-.4.4-8.3 6.7-.6.5v.8.8 1.6h1.6 1.3v4.6c0 4.8 4.8 6.9 9.5 6.9 3.1 0 6.1-1 6.2-1l1.1-.4v-1.2-3.2-2.1l-2 .5c0 0-1.5.4-4.1.7-.1 0-.2 0-.3 0-.2 0-.8 0-.9-.7v-4.2h5.7 1.6v-1.6-3.1-1.5h-1.6-5.7v-2.9-1.6h.1z"/></g></g><g><g><path fill="#fff" d="m412.1 77.1c-6.3 0-10.7-1.3-13.1-3.7-2.1-2.2-2.1-4.5-2.1-5.3v-.1c0-1.1 0-3.6 8.7-12.4-2.9-.2-6.8-.9-6.8-3.6 0-4.1 15.1-4.5 15.2-4.5 0 0 .1 0 .1 0 1.7-1.7 11.5-10.7 20-10.7.3 0 .5 0 .8 0h.6l.2.5c.3 1.1-2 3.8-6.9 8 9.1-1.1 21.2-3.9 21.2-7.8 0-2.5-5.1-2.8-8.2-2.8-7 0-17.8 1.9-26.8 4.6.2.4.4.8.3 1.3-.3 1.2-1.9 1.6-3.1 1.8-4.7.7-7.4 1.3-8.6 1.6-.4.1-1 .3-1.8.5-2.6.8-4.6 1.4-5.4 1.4-1 0-2.3-.5-2.9-1.5-.4-.6-.4-1.3-.1-2 .7-1.6 5.1-8.4 10.3-11.2 5.6-3 23.1-5.1 23.2-5.1h.4c2.6-.3 8.6-1 13.7-1 5.5 0 18.4.9 18.4 9.5 0 8.4-9.3 12.7-36.8 16.9 2.7.3 7 .8 11.4 1.6 9.8 1.9 14.5 4.6 14.5 8.1 0 8.7-22.4 15.9-36.4 15.9m4.9-20.5c-.7 0-1.3.2-1.9.7-5.1 4.4-6.5 6.5-6.5 6.9 0 1.3 2.8 3.1 8.8 3.1 7.1 0 19.5-4.4 19.5-6.9 0-1.7-9.5-3.5-19.9-3.8v-.8.8"/><path fill="#231f20" d="m440.9 26c5.2 0 17.6.9 17.6 8.7s-9 12-37.1 16.3l-1.6 1.2c0 0 27.7 1.8 27.7 9.2 0 7.4-20.5 14.9-35.5 14.9s-14.2-7.3-14.2-8.3c0-1 .1-3.6 9.7-13.2 0 0 0 0-.1 0-1 0-7.8-.1-7.8-2.8 0-2.7 11.8-3.7 14.4-3.7.2 0 .4 0 .4 0 0 0 10.7-10.7 19.7-10.7.2 0 .5 0 .7 0 0 0 .4 1.3-8.6 8.9 0 0 24.5-2.3 24.5-8.8 0-2.6-3.7-3.6-9-3.6-8 0-19.8 2.3-28.3 5 0 0 3.1 2-1.4 2.7-4.5.6-7.2 1.3-8.7 1.6-1.4.4-5.9 1.9-7 1.9-1 0-2.9-.9-2.2-2.3.6-1.4 4.9-8.1 10-10.9 5.1-2.7 20.6-4.7 22.9-5 2.4-.3 8.7-1.1 13.9-1.1m-23.5 42.2c6.4 0 20.3-4.1 20.3-7.7 0-3.3-13.9-4.6-20.6-4.7 0 0-.1 0-.1 0-.9 0-1.7.3-2.4.9-2.1 1.9-6.8 6.1-6.8 7.5 0 2 3.2 4 9.6 4m23.5-43.8c-5.1 0-11.2.7-13.8 1h-.4c-.2 0-17.8 2-23.5 5.2-5.5 3-9.9 9.9-10.7 11.6-.4.9-.4 1.9.2 2.8.8 1.2 2.3 1.8 3.5 1.8h.1c.9 0 2.5-.4 5.7-1.4.7-.2 1.3-.4 1.7-.5 1.2-.3 3.9-.9 8.5-1.6.9-.1 3.3-.5 3.8-2.4.1-.3.1-.7 0-1 4-1.2 8.3-2.2 12.5-2.9-6.7 2.3-12.9 7.9-14.7 9.6-1.6 0-5.1.3-8.3.9-3.5.6-7.5 1.7-7.5 4.5 0 2.7 3.1 3.8 5.9 4.2-7.7 8.2-7.7 10.6-7.7 11.8v.1c0 2.3.7 4.3 2.3 5.9 2.6 2.6 7.2 4 13.7 4 14.7 0 37.1-7.4 37.1-16.5 0-4-5-6.9-15.2-8.9-2-.4-3.9-.7-5.7-1 23.6-4 31.8-8.5 31.8-16.8 0-3.2-1.9-10.4-19.3-10.4zm-5.5 11.6c2.3-.3 4.5-.4 6.3-.4 5.1 0 7.4 1 7.4 2 0 2.1-7 5.1-18 6.6 5.7-5.3 5.4-6.5 5.2-7.1l-.3-1.1h-.6m-26 28.3c.3-.6 1.9-2.6 6.2-6.4.4-.3.8-.5 1.3-.5h.1c9.7.2 17.9 1.9 19 3.2-.3.6-2.2 2.1-7 3.7-4.1 1.4-8.7 2.3-11.6 2.3-5.7 0-7.8-1.7-8-2.3"/></g><g><path fill="#fff" d="m467 52.6c-2.3 0-3.6-1.3-3.6-3.4 0-3 4.7-5.7 7.5-5.7 2.1 0 3 .9 3.3 1.7.7 1.8-.6 4.3-1.9 5.5-.9.9-3.2 1.9-5.3 1.9"/><path fill="#231f20" d="m470.9 44.2c0 0 0 0 0 0 4.4 0 2.4 4.2.8 5.8-.8.8-2.9 1.7-4.7 1.7-1.5 0-2.8-.7-2.8-2.6 0-2.3 4-4.9 6.7-4.9m0-1.6c-3.3 0-8.3 2.9-8.3 6.5 0 2.6 1.7 4.3 4.4 4.3 2 0 4.6-1 5.9-2.2 1.3-1.3 3-4.1 2-6.4-.3-.8-1.3-2.2-4-2.2z"/></g><g><path fill="#fff" d="m520.7 89.1c-1.4 0-2.1-1.3-2.6-2.2-1.3-2.8.2-5.1.6-5.7.3-.3 4.8-6.7 8.4-11.6-3.2 2.2-7.3 4.7-9.6 4.7-3.1 0-5.1-3.1-5.9-4.7-2.2 1.7-8.6 6.2-14.5 6.2-5.3 0-7-3.3-7.5-5.3-2.2 1.8-7.5 5.5-13.2 5.5-5.4 0-7.2-3.4-7.8-5.4-3.5 3.1-8.7 6-13.2 6-2.5 0-6.9-1-7.6-8-.3-3.1.9-6.4 3.7-9.4 3.8-4.2 9.3-6.9 11.6-6.9h.1c.9 0 3.5 0 4.1 1.8 1.1 3.7-9.8 11.1-9.9 11.1-.8.6-1.3 1.5-1.1 2.2.2.8 1.3 1.2 3 1.2 4 0 7.8-2.8 8.8-3.6 1.1-6.9 4.9-12.4 6.1-14 2.2-2.9 14.4-16.4 19.9-16.4 1 0 2.7.4 2.9 3.3.6 6.3-5.8 14.5-18.8 24.3l-.3.2c-1.6 1.2-1.8 2.9-1.4 4 .5 1.4 1.8 2.4 3.4 2.4 3.3 0 8-2.8 9.3-3.6 1.1-10.6 9.3-17.9 9.7-18.2 1.1-1.2 11.6-12.2 16.4-12.2.9 0 2.5.4 2.7 3 .7 8.2-10.1 17.7-16.7 22.7-3.7 2.8-3.7 3.8-3.7 4.5 0 .6 0 2.1.9 3 .5.5 1.3.8 2.4.8 3.4 0 8.6-3.1 9.9-3.9 1-5.2 5.5-10.1 13.4-14.6.2-.1.3-.2.4-.2.5-.3 1-.6 1.7-.6.9 0 1.7.5 2.9 1.3 1 .7 2.1 1.9 1.4 3.7-.2.8-4.6 5.2-8.6 8-2.8 2-3.6 3.3-3.8 4 .9-.2 2.6-.8 5.2-2.2 3.2-1.7 10.7-7.7 14.8-11 1-.8 1.7-1.4 2.2-1.7.9-.7 1.8-1.1 2.5-1.1 1.4 0 2 1.2 2.3 1.6.9 1.6.8 3.5-.4 5.5-.9 1.5-6.3 8-10 12.5 3.9-2.8 9.2-6.7 12.5-9.1l.9-.7 1.2 4.1-.4.3c-1.9 1.5-11.4 10.1-18.3 16.3-3.8 3.5-6.8 6.2-7.4 6.6-.9.9-1.7 1.5-2.6 1.5m-32.4-43.8c-1.5 1-4 3.2-6.9 7.7 2.3-2.1 5.2-5 6.9-7.7m21.1 0c-1.5 1-4 3.2-6.9 7.7 2.3-2.1 5.2-5 6.9-7.7"/><path fill="#231f20" d="m494.1 35.5c1.2 0 2 .7 2.1 2.5.8 9.3-15.2 21.1-18.8 23.8-3.6 2.7-1.7 7.9 2.5 7.9 4.2 0 10.1-4 10.1-4 .9-10.6 9.5-18 9.5-18s11.3-12 15.9-12c1.1 0 1.8.6 1.9 2.3.7 8.5-12.2 18.8-16.3 22-4.1 3.1-4 4.3-4 5.1 0 .9-.1 4.6 4.1 4.6 4.2 0 10.6-4.2 10.6-4.2 1.3-8.3 12.3-13.9 13.5-14.6.5-.3.9-.5 1.3-.5.6 0 1.3.4 2.4 1.2 1.8 1.3 1.2 2.6 1.1 2.9-.1.3-3.9 4.4-8.3 7.6-4.4 3.2-4.3 4.8-4.2 5.3 0 .1.2.2.4.2.8 0 3-.7 6-2.3 4-2.2 14.8-11 17-12.8.9-.7 1.5-.9 2-.9.8 0 1.2.6 1.6 1.2.5.9.9 2.4-.4 4.7-1.4 2.2-13.7 16.9-13.7 16.9 2.1-1.2 17.3-12.4 17.3-12.4l.7 2.4c-3 2.3-24.2 21.7-25.7 23-.7.6-1.4 1-2 1-.7 0-1.2-.5-1.8-1.8-1.1-2.4.1-4.3.5-4.8.4-.5 11.4-15.8 11.4-15.8s-9.6 7.6-13.3 7.6c-3.7 0-5.6-5.2-5.6-5.2s-7.9 6.7-14.8 6.7c-6.9 0-6.9-6.1-6.9-6.1s-6.7 6.2-13.7 6.2c-7.1 0-7.3-6.2-7.3-6.2-3.5 3.4-9.2 6.8-13.7 6.8-3.5 0-6.2-1.9-6.8-7.3-.9-8.5 11-15.4 14.5-15.4 0 0 .1 0 .1 0 9.6 0-4.2 10.1-6.3 11.5-2.1 1.4-2.6 4.8 2.4 4.8 4.9 0 9.6-4 9.6-4 1-7.4 5.5-13.3 6-13.9 2.3-3.1 14.2-16 19.1-16m5.2 21.2c0 0 9.7-7.4 11.8-13.1-.3 0-5.2 1-11.8 13.1m-21.1 0c0 0 9.7-7.4 11.8-13.1-.2 0-5.1 1-11.8 13.1m15.9-22.8c-6.1 0-19 14.7-20.5 16.7-1.2 1.6-5.1 7.1-6.2 14-1.2.9-4.6 3.2-8.1 3.2-1.5 0-2.2-.4-2.3-.6-.1-.3.2-.9.8-1.3 1.9-1.3 11.5-7.9 10.2-12-.5-1.6-2.1-2.4-4.8-2.4h-.1c-2.8 0-8.4 3-12.2 7.2-2.9 3.2-4.2 6.7-3.9 10 .8 7.6 5.6 8.7 8.4 8.7 4.3 0 9.3-2.6 12.8-5.5 1 2.2 3.2 4.9 8.2 4.9 5.2 0 10.1-3 12.8-5 .9 2.2 2.9 4.8 7.9 4.8 5.5 0 11.5-3.8 14.2-5.8 1.1 1.8 3.1 4.3 6.2 4.3 1.7 0 4.1-1.1 6.5-2.5-3 4.2-5.6 7.8-5.9 8.1-.6.7-2.3 3.3-.7 6.5.3.7 1.3 2.7 3.3 2.7 1.2 0 2.2-.7 3-1.4.6-.5 3.1-2.7 7.4-6.7 6.5-5.9 16.4-14.9 18.3-16.3l.9-.7-.3-1.1-.7-2.4-.7-2.2-1.8 1.3c-2.2 1.6-4.8 3.6-7.4 5.4 2.8-3.4 5.5-6.8 6.1-7.8 1.7-2.8 1.2-5 .5-6.3-.3-.5-1.1-2-3-2-.9 0-1.9.4-3 1.2-.4.3-1.2.9-2.2 1.7-3.7 3-11.5 9.2-14.7 10.9-1 .6-1.9 1-2.6 1.3.5-.5 1.2-1.1 2.2-1.8 3.7-2.6 8.6-7.3 8.9-8.4.8-2.4-.7-3.9-1.7-4.7-1.3-.9-2.2-1.5-3.4-1.5-.9 0-1.6.4-2.1.7-.1.1-.2.1-.4.2-7.9 4.5-12.5 9.5-13.7 14.8-2.1 1.3-6.4 3.6-9.2 3.6-.8 0-1.4-.2-1.8-.6-.7-.7-.7-1.9-.7-2.3v.2c0-.4 0-1.2 3.4-3.8 6.6-5.1 17.7-14.8 17-23.4-.3-3.5-2.8-3.7-3.5-3.7-5 0-14.9 10.2-17 12.4-.9.8-8.6 7.9-9.9 18.2-1.9 1.2-5.9 3.3-8.5 3.3-1.5 0-2.3-.9-2.6-1.8-.4-1.2 0-2.3 1.1-3.2l.3-.2c13.3-10 19.7-18.5 19.1-25-.5-3.6-3.1-3.9-3.9-3.9z"/></g><g><path fill="#fff" d="m557.8 46.4c-.3 0-1.2 0-1.3-.8-.1-.3.1-.8.6-1 .4-.2 1.4-1.5 2.5-3-.6-.1-1.1-.3-1.6-.8-.5-.6-.8-1.4-.7-2.5.3-4.9 5.9-7 9.3-7.1.1 0 .3 0 .4 0 1.8 0 2.9.5 3.4 1.5.8 1.5-.1 3.8-2.7 7.4-3.5 5-7.9 6.3-9.9 6.3"/><path fill="#231f20" d="m567 32.2c2.9 0 4.6 1.4.1 7.6-3.6 4.9-7.8 5.8-9.3 5.8-.5 0-.6-.1-.4-.2.9-.4 3.7-4.4 3.7-4.4-.8-.1-3.2.4-3-2.5.3-4.4 5.4-6.2 8.5-6.4.1.1.2.1.4.1m0-1.6c-.1 0-.3 0-.4 0-3.7.1-9.8 2.4-10.1 7.9-.1 1.3.2 2.3.9 3.1.3.3.6.5.9.7-.7.9-1.3 1.6-1.6 1.8-.7.3-1.1 1.1-1 1.8.1.5.5 1.4 2.1 1.4 2.2 0 6.9-1.4 10.6-6.5 2.8-3.9 3.7-6.4 2.7-8.2-.7-1.4-2.1-2-4.1-2z"/></g><g><path fill="#fff" d="m571.2 77.1c-2.6 0-5.6-.7-8.6-2-3-1.3-4.2-3.6-4.7-4.9-.4.3-1 .5-1.5.5-.5 0-.9-.2-1.2-.5-1.1-1.1-.3-3-.2-3.2l.1-.2 17.6-13.8c.3-2 1.8-4.1 4.3-4.6.3-.1.7-.1 1-.1 1.8 0 2.9.9 3.3 1.6.5 1 1.1 4.1 1.7 9.1.6 5-4.4 9-7.5 11 5.2-.7 12.3-6.5 12.4-6.6l.9-.8 1.3 4.1-.2.3c-1.2 2-10.7 7.8-14.2 9.1-1.3.8-2.8 1-4.5 1m-6.4-12c1.2.4 2.7 1.3 4.2 3.4 1-.4 3.2-1.6 4.2-3.8.8-1.8.8-4-.2-6.4l-8.2 6.8"/><path fill="#231f20" d="m578 49.2c1.6 0 2.4.8 2.6 1.2.2.4.8 2.2 1.6 8.8.8 6.6-9.5 11.5-9.5 11.5.5.2 1.1.3 1.7.3 5.6 0 13.9-6.9 13.9-6.9l.8 2.7c-1 1.6-10.1 7.4-13.8 8.8-1.3.5-2.7.7-4.2.7-2.7 0-5.5-.7-8.3-1.9-4.1-1.8-4.5-5.4-4.7-5.4-.2.2-1.1.9-1.8.9-.2 0-.4-.1-.6-.2-.7-.7 0-2.2 0-2.2l17.7-14c.1-1.9 1.5-3.8 3.7-4.2.4-.1.7-.1.9-.1m-15.1 16.4c0 0 .1 0 .3 0 .8 0 3.1.3 5.5 3.9 0 0 9.1-2.7 4.7-12.5l-10.5 8.6m15.1-18c-.4 0-.7 0-1.1.1-2.8.5-4.5 2.7-5 4.9l-17.2 13.6-.3.2-.2.3c-.6 1.2-.8 2.9.3 4.1.5.5 1.1.7 1.8.7.4 0 .7-.1 1.1-.2.7 1.4 2.1 3.4 4.8 4.5 3.1 1.3 6.2 2 8.9 2 1.7 0 3.4-.3 4.8-.8 2.2-.8 5.6-2.8 8.2-4.4 3.6-2.3 5.8-4 6.4-5l.5-.6-.2-.7-.8-2.7-.7-2.3-1.8 1.5c-1.4 1.1-4.4 3.3-7.5 4.9 2.4-2.3 4.4-5.3 4-8.8-.6-5.2-1.3-8.3-1.8-9.4-.7-.8-2-1.9-4.2-1.9zm-11.7 17.3l6.4-5.3c.5 1.8.4 3.4-.2 4.7-.8 1.7-2.3 2.7-3.3 3.2-.9-1.2-1.9-2-2.9-2.6"/></g></g></g></switch></svg>